{"title":"\nThe Ranch Season 2. revittony","magnet":"magnet:?xt=urn:btih:7738122059fb84a508336027dc3646987219a077&dn=The+Ranch+Season+2.+revittony&tr=udp%3A%2F%2Ftracker.leechers-paradise.org%3A6969&tr=udp%3A%2F%2Fzer0day.ch%3A1337&tr=udp%3A%2F%2Fopen.demonii.com%3A1337&tr=udp%3A%2F%2Ftracker.coppersurfer.tk%3A6969&tr=udp%3A%2F%2Fexodus.desync.com%3A6969","uploader":"revittony1","categoryP":"video","categoryS":"tv_shows","size":"2803178152","seeders":"5","leechers":"4","description":"all 10 episodes of season 2\r\n\r\nS02E01 My Next Thirty Years.mp4 \r\nFormat : MPEG-4 \r\nFormat profile : Base Media \r\nCodec ID : isom (isom/iso2/avc1/mp41) \r\nFile size : 275 MiB \r\nDuration : 32 min 36 s \r\nOverall bit rate : 1 177 kb/s  \r\nEncoded date : UTC 2017-06-16 09:46:34 \r\nTagged date : UTC 2017-06-16 09:46:34 \r\nWriting application : Lavf56.40.101 \r\n\r\n\r\nVideo \r\nID : 1 \r\nFormat : AVC \r\nFormat/Info : Advanced Video Codec \r\nFormat profile : <a href=\"/cdn-cgi/l/email-protection\" class=\"__cf_email__\" data-cfemail=\"4800212f2008047b6679\">[email&#xA0;protected]</a> \r\nFormat settings : CABAC / 5 Ref Frames \r\nFormat settings, CABAC : Yes \r\nFormat settings, RefFrames : 5 frames \r\nCodec ID : avc1 \r\nCodec ID/Info : Advanced Video Coding \r\nDuration : 32 min 36 s \r\nBit rate : 1 044 kb/s \r\nNominal bit rate : 1 100 kb/s \r\nWidth : 720 pixels \r\nHeight : 400 pixels \r\nDisplay aspect ratio : 16:9 \r\nFrame rate mode : Constant \r\nFrame rate : 23.976 (24000/1001) FPS \r\nColor space : YUV \r\nChroma subsampling : 4:2:0 \r\nBit depth : 8 bits \r\nScan type : Progressive \r\nBits/(Pixel*Frame) : 0.151 \r\nStream size : 243 MiB (89%)  \r\nEncoded date : UTC 2017-06-16 09:46:34 \r\nTagged date : UTC 2017-06-16 09:46:34 \r\n\r\nAudio \r\nID : 2 \r\nFormat : AAC \r\nFormat/Info : Advanced Audio Codec \r\nFormat profile : LC \r\nCodec ID : mp4a-40-2 \r\nDuration : 32 min 36 s \r\nDuration_LastFrame : -11 ms \r\nBit rate mode : Constant \r\nBit rate : 128 kb/s \r\nChannel(s) : 2 channels \r\nChannel positions : Front: L R \r\nSampling rate : 48.0 kHz \r\nFrame rate : 46.875 FPS (1024 SPF) \r\nCompression mode : Lossy \r\nStream size : 29.9 MiB (11%)  \r\nLanguage : English \r\nDefault : Yes \r\nAlternate group : 1 \r\nEncoded date : UTC 2017-06-16 09:46:34 \r\nTagged date : UTC 2017-06-16 09:46:34","last_updated":"2017-09-29T12:09:26.779Z","parsed":{"xt":"urn:btih:7738122059fb84a508336027dc3646987219a077","dn":"The Ranch Season 2. revittony","tr":["udp://exodus.desync.com:6969","udp://open.demonii.com:1337","udp://tracker.coppersurfer.tk:6969","udp://tracker.leechers-paradise.org:6969","udp://zer0day.ch:1337"],"infoHash":"7738122059fb84a508336027dc3646987219a077","infoHashBuffer":{"type":"Buffer","data":[119,56,18,32,89,251,132,165,8,51,96,39,220,54,70,152,114,25,160,119]},"name":"The Ranch Season 2. revittony","announce":["udp://exodus.desync.com:6969","udp://open.demonii.com:1337","udp://tracker.coppersurfer.tk:6969","udp://tracker.leechers-paradise.org:6969","udp://zer0day.ch:1337"],"urlList":[]}}